<svg viewBox="0 0 61 60" fill="none" xmlns="http://www.w3.org/2000/svg">
<path d="M14.1431 57.7602C13.2326 57.2993 12.108 57.0511 11.3411 56.4467C10.2792 56.1346 9.55164 55.4926 8.67215 55.0027C7.0874 53.9165 5.69046 52.5867 4.53479 51.0643C2.1736 48.0047 0.760642 44.0122 0.130694 39.2496C-0.0804256 36.6694 -0.0356854 34.0752 0.264318 31.5036C0.414041 30.2948 0.559903 29.0817 0.797797 27.958C1.14771 26.9892 1.31186 25.8382 1.99892 25.201C4.72001 24.3785 8.06328 24.1646 11.4736 24.0201C13.8665 23.8684 16.4245 23.8782 18.982 23.8875C19.9968 23.8913 21.0116 23.8946 22.017 23.8875C22.2327 23.9246 22.2471 23.7642 22.4173 23.7566C27.3305 23.8237 32.1898 23.9453 36.9627 24.1504C41.5176 24.5268 46.3925 24.5868 50.4417 25.4634C51.0938 26.6591 51.2979 28.2967 51.3755 30.0581C51.5125 30.1737 51.7975 30.129 52.1081 30.0848C52.2734 30.0336 52.4478 30.0164 52.6202 30.0344C52.7926 30.0525 52.9594 30.1053 53.1101 30.1896C53.7799 30.1804 54.4493 30.2241 55.1119 30.3205C55.4153 30.5932 55.9959 30.5883 56.3131 30.8452C56.7279 30.9625 56.9347 31.2849 57.3805 31.3705C57.8314 31.9335 58.3787 32.401 58.8484 32.9459C60.0074 35.4045 60.3796 38.1514 59.9159 40.8228C59.1911 42.2099 58.5057 43.6358 57.3805 44.6297C56.5022 45.8653 55.128 46.6148 53.7761 47.3861C53.0108 47.5099 52.3898 47.7712 51.6412 47.9109C50.4693 48.003 49.2905 47.8691 48.1709 47.5165C47.8099 47.892 47.5365 48.3404 47.3696 48.8305C46.9814 49.1033 46.8406 49.622 46.5688 50.0115C45.2829 51.2405 44.1843 52.655 42.833 53.8185C41.5021 55.006 40.0498 56.0686 38.6956 57.2316C37.3714 57.8316 36.1298 58.645 34.6919 59.0699C34.5555 59.1092 34.4396 59.0486 34.4246 59.2003C32.3651 59.449 30.3593 59.7512 28.2865 59.9885C27.9538 59.9965 27.6262 60.0003 27.3039 60C22.8202 59.9855 18.3711 59.2283 14.1431 57.7602ZM4.93793 27.305C4.10614 29.596 4.12442 32.7179 4.13717 35.837C4.1807 38.5559 4.6291 41.2538 5.46806 43.8448C5.57231 43.8742 5.62389 43.9539 5.60226 44.1077C6.16012 45.2216 6.95976 46.0976 7.47049 47.2579C7.81097 47.7543 8.08766 48.314 8.4043 48.8338C8.81739 49.3185 9.17534 49.8463 9.47176 50.4076C10.359 51.1538 11.1354 52.0107 12.0076 52.7711C12.5855 52.8595 12.7247 53.3783 13.3424 53.4257C13.5088 53.9167 14.3345 53.7623 14.543 54.2134C15.9997 54.5756 17.2014 55.1871 18.8129 55.3944C19.1322 55.5891 19.5054 55.6811 19.8803 55.6573C20.2541 55.8362 20.6653 55.9261 21.0809 55.9197C21.819 56.1128 22.6979 56.1674 23.4837 56.3141H28.419C29.1052 56.1383 29.815 56.069 30.5229 56.1085C31.2508 56.1413 31.9799 56.0778 32.6906 55.9197C34.1878 55.4664 35.3396 54.676 36.9605 54.3454C37.7657 53.6063 38.837 53.1284 39.6294 52.3768C40.5104 51.7208 41.3161 50.9724 42.0322 50.1446C43.5691 48.515 44.8306 46.6537 45.7686 44.6314C47.9219 40.6231 48.5352 35.1006 48.304 28.7467C44.9567 28.1337 41.5653 27.7828 38.1616 27.6972C36.4542 27.5379 34.668 27.4572 32.8242 27.4343C31.2438 27.239 28.7545 27.3836 27.6194 27.1719C20.035 27.1937 12.5001 27.1659 5.19966 26.909C5.11423 26.9321 5.0403 26.9851 4.99171 27.058C4.94313 27.1309 4.92321 27.2187 4.9357 27.305H4.93793ZM49.6432 44.2392C50.434 44.4802 51.2865 44.4338 52.0454 44.1082C52.8351 43.9653 53.2099 43.4144 53.9142 43.1885C54.9484 42.1058 56.0214 41.0611 56.3164 39.2507C56.4352 38.4839 56.2943 37.6999 55.9155 37.0196C55.1708 36.3394 53.7223 36.3498 52.2744 36.3612C51.9739 36.3612 51.6728 36.3656 51.3783 36.3612C51.1415 39.3265 50.3169 41.7086 49.641 44.2386L49.6432 44.2392ZM25.3547 48.4394C25.2992 48.4002 25.272 48.2043 25.2205 48.177C24.8593 48.0363 24.5386 47.8106 24.2866 47.5197C23.6367 47.1839 23.0501 46.7411 22.5521 46.2106C21.3372 45.3649 20.1781 44.4443 19.0818 43.4542C18.4652 42.5727 17.8929 41.647 17.3472 40.6973C17.0422 39.5857 16.9075 38.4355 16.9474 37.2847C17.1576 37.054 17.1249 36.5849 17.2142 36.2341C17.6008 35.704 18.0485 35.2196 18.5484 34.7908C18.9272 34.7296 19.2899 34.5954 19.6158 34.3958C21.4369 34.2234 22.6003 34.698 23.8857 35.0504C24.6743 35.4551 25.1057 36.2145 26.0207 36.4943C27.6122 35.7852 28.9125 34.7886 30.824 34.3942C31.0403 34.4313 31.0536 34.2698 31.2249 34.2638C32.2559 34.1894 33.2923 34.2778 34.2948 34.5256C35.2259 35.0912 35.9681 35.9128 36.4298 36.8887C36.6072 38.4635 36.0638 39.3308 35.7643 40.4344C34.5837 42.1608 32.6457 43.1422 31.3603 44.7672C30.783 44.9423 30.5235 45.4316 30.0255 45.6858C29.8231 46.186 29.2015 46.2755 28.958 46.7359C27.8745 47.1139 27.7125 48.3985 26.4221 48.5736C26.2821 48.5598 26.1411 48.5582 26.0007 48.5687C25.9342 48.5725 25.8704 48.5758 25.8083 48.5758C25.6452 48.5841 25.4842 48.5358 25.3536 48.4394H25.3547ZM26.5552 21.9221C26.5014 21.8741 26.438 21.8377 26.3691 21.8151C26.3001 21.7926 26.2272 21.7844 26.1549 21.7912C25.0037 20.548 26.4876 19.1576 26.6878 17.7218C26.7323 17.0542 26.6416 16.3845 26.421 15.7515C26.1249 15.2999 26.0539 14.6257 25.6203 14.3082C25.428 13.7715 25.2059 13.2455 24.9549 12.7328C24.6371 12.3013 24.6133 11.5813 24.2894 11.1574C24.2073 10.3196 24.1275 9.48006 24.0221 8.66347C24.1885 7.60085 24.0986 6.28785 24.4225 5.38179C24.5916 4.32191 25.0907 3.58769 25.3575 2.6249C25.8138 2.28779 25.9314 1.61356 26.4244 1.31245C26.7111 0.806236 27.2562 0.554224 27.626 0.130379C27.9033 0.184928 27.9793 0.0398207 28.1595 0H29.3601C29.1859 0.711354 28.8681 1.38103 28.4257 1.96922C28.2444 3.54023 27.5972 4.65411 27.3582 6.16948V9.58316C27.8445 12.0379 29.2824 13.5527 29.8935 15.8836C29.9347 16.8922 29.8904 17.9025 29.761 18.9039C29.5079 19.308 29.3274 19.752 29.2275 20.2164C28.5394 20.896 28.2355 21.9527 26.9584 22.0547C26.9395 22.0547 26.921 22.0547 26.9029 22.0547C26.7742 22.0533 26.6504 22.0062 26.5541 21.9221H26.5552ZM20.5508 19.2961C19.7467 17.8986 18.4668 16.9707 17.3472 15.883C17.2076 15.4888 16.9802 15.1303 16.6818 14.8335C16.6934 14.6475 16.704 14.4615 16.5482 14.4396C16.4136 13.2337 16.5872 12.0137 17.0533 10.8905C17.5193 9.76719 18.2631 8.77615 19.2171 8.00724C19.4944 8.06179 19.5709 7.91615 19.7511 7.87633C19.9408 7.86433 20.1293 7.85396 20.1515 8.00724C20.6201 7.8916 20.2901 8.34707 20.1515 8.40108C20.0816 8.59472 19.9547 8.73165 19.8842 8.92584C19.6674 9.23786 19.5842 9.68081 19.3507 9.97592C19.2019 11.1533 19.2019 12.3442 19.3507 13.5216C20.2635 15.0746 21.941 15.8748 22.2864 17.9853C22.3454 18.8256 22.2551 19.6695 22.0197 20.4793C21.6264 20.8637 21.1055 21.096 20.5524 21.1339L20.5508 19.2961ZM36.03 20.7411C35.7627 20.4624 36.219 20.1553 36.2972 19.8214C36.4509 19.5244 36.5847 19.2177 36.6976 18.9034C36.7233 17.9337 36.6338 16.9643 36.4309 16.015C35.9457 14.9159 35.2398 14.0354 34.8294 12.8643C34.7224 11.4029 35.1067 10.4249 36.1642 10.1074H36.4314C36.5316 10.6132 36.7114 11.1006 36.9643 11.5518C37.7402 12.5583 38.4534 13.6101 39.0998 14.7015C39.0765 14.8647 39.0882 15.031 39.1343 15.1895C39.1803 15.348 39.2596 15.4952 39.3671 15.6217C39.3399 16.1067 39.3849 16.5929 39.5008 17.0651C39.5926 17.5087 39.5869 17.9665 39.4841 18.4078C39.3813 18.8491 39.1838 19.2637 38.9048 19.6238C38.6258 19.9838 38.2717 20.2811 37.8664 20.4955C37.461 20.7099 37.0138 20.8366 36.5546 20.8671C36.3708 20.8681 36.1895 20.8249 36.0266 20.7411H36.03Z" fill="#FFB190"/>
</svg>
